SplineFontDB: 3.0
FontName: AyannaNarrowTamil-ExtraBold
FullName: AyannaNarrow
FamilyName: ayanna-tamil
OS2FamilyName: "ayanna-tamil tamil"
OS2StyleName: "regular"
Weight: Regular
Copyright: Licensed under the SIL Open Font License 1.1 (see file OFL.txt)
Version: 2.5
ItalicAngle: 0
UnderlinePosition: 0
UnderlineWidth: 0
Ascent: 800
Descent: 200
InvalidEm: 0
UFOAscent: 800
UFODescent: -200
LayerCount: 2
Layer: 0 0 "Back" 1
Layer: 1 0 "Fore" 0
FSType: 0
OS2Version: 0
OS2_WeightWidthSlopeOnly: 0
OS2_UseTypoMetrics: 0
CreationTime: 1451318399
ModificationTime: 1451318399
PfmFamily: 16
TTFWeight: 500
TTFWidth: 5
LineGap: 0
VLineGap: 0
Panose: 2 0 6 0 0 0 0 0 0 0
OS2TypoAscent: 0
OS2TypoAOffset: 1
OS2TypoDescent: 0
OS2TypoDOffset: 1
OS2TypoLinegap: 0
OS2WinAscent: 0
OS2WinAOffset: 1
OS2WinDescent: 0
OS2WinDOffset: 1
HheadAscent: 0
HheadAOffset: 1
HheadDescent: 0
HheadDOffset: 1
OS2SubXSize: 841
OS2SubYSize: 780
OS2SubXOff: 0
OS2SubYOff: 240
OS2SupXSize: 841
OS2SupYSize: 780
OS2SupXOff: 0
OS2SupYOff: 601
OS2StrikeYSize: 60
OS2StrikeYPos: 300
OS2CapHeight: 700
OS2XHeight: 500
OS2Vendor: 'ACE '
OS2CodePages: 00000001.00000000
OS2UnicodeRanges: 80108003.00002042.00000000.00000000
DEI: 91125
LangName: 1033 "Licensed under the SIL Open Font License 1.1 (see file OFL.txt)" "" "" "" "" "Version 2.5.0" "" "" "" "" "" "" "" "" "" "" "ayanna-tamil" "medium"
PickledDataWithLists: "(dp1
S'public.glyphOrder'
p2
(lp3
S'a-tamil'
p4
aS'tml_Aa'
p5
aS'tml_I'
p6
aS'tml_Ii'
p7
aS'tml_U'
p8
aS'tml_Uu'
p9
aS'tml_E'
p10
aS'tml_Ee'
p11
aS'tml_Ai'
p12
aS'tml_O'
p13
aS'tml_Oo'
p14
aS'tml_Au'
p15
aS'tml_Ka'
p16
aS'tml_Nga'
p17
aS'tml_Ca'
p18
aS'tml_Ja'
p19
aS'tml_Nya'
p20
aS'tml_Tta'
p21
aS'tml_Nna'
p22
aS'tml_Ta'
p23
aS'tml_Na'
p24
aS'tml_Nnna'
p25
aS'tml_Pa'
p26
aS'tml_Ma'
p27
aS'tml_Ya'
p28
aS'tml_Ra'
p29
aS'tml_Rra'
p30
aS'tml_La'
p31
aS'tml_Lla'
p32
aS'tml_Llla'
p33
aS'va-tamil'
p34
aS'tml_Sha'
p35
aS'tml_Ssa'
p36
aS'tml_Sa'
p37
aS'tml_Ha'
p38
aS'tml_Om'
p39
aS'tml_Visarga'
p40
aS'tml_Ten'
p41

StartChar: a-tamil
Encoding: 0 2949 0
GlifName: a-tamil
Width: 831
VWidth: 0
Flags: W
LayerCount: 2
Back
Fore
SplineSet
663 256 m 256
 663 420 581 573 405 573 c 256
 274 573 191 489 191 385 c 256
 191 300 246 249 322 249 c 256
 400 249 450 304 450 381 c 256
 450 464 387 511 323 511 c 256
 252 511 207 455 207 389 c 257
 234 385 l 257
 234 426 263 469 320 469 c 256
 363 469 408 439 408 384 c 256
 408 333 377 291 323 291 c 256
 281 291 234 316 234 385 c 256
 234 468 299 531 403 531 c 256
 568 531 618 371 618 256 c 256
 618 74 491 -62 284 -62 c 256
 157 -62 72 -7 72 79 c 256
 72 150 127 179 221 179 c 258
 787 179 l 257
 787 221 l 257
 214 221 l 258
 76 221 30 149 30 77 c 256
 30 -28 126 -104 290 -104 c 256
 507 -104 663 29 663 256 c 256
  PathStart: -2
801 -85 m 257
 801 559 l 257
 759 559 l 257
 759 -85 l 257
 801 -85 l 257
EndSplineSet
EndChar

StartChar: tml_Aa
Encoding: 4 2950 4
GlifName: tml_A_a
Width: 1022
VWidth: 0
Flags: W
LayerCount: 2
Back
Fore
SplineSet
663 256 m 256
 663 420 581 573 405 573 c 256
 274 573 191 489 191 385 c 256
 191 300 246 249 322 249 c 256
 400 249 450 304 450 381 c 256
 450 464 387 511 323 511 c 256
 252 511 207 455 207 389 c 257
 234 385 l 257
 234 426 263 469 320 469 c 256
 363 469 408 439 408 384 c 256
 408 333 377 291 323 291 c 256
 281 291 234 316 234 385 c 256
 234 468 299 531 403 531 c 256
 568 531 618 371 618 256 c 256
 618 74 491 -62 284 -62 c 256
 157 -62 72 -7 72 79 c 256
 72 150 127 179 221 179 c 258
 787 179 l 257
 787 221 l 257
 214 221 l 258
 76 221 30 149 30 77 c 256
 30 -28 126 -104 290 -104 c 256
 507 -104 663 29 663 256 c 256
  PathStart: -2
992 -98 m 256
 992 19 925 67 858 68 c 256
 802 69 770 20 767 -21 c 257
 801 -42 l 257
 801 -25 807 26 858 26 c 256
 920 26 950 -29 950 -98 c 256
 950 -214 860 -307 727 -307 c 256
 623 -307 531 -256 531 -178 c 256
 531 -136 559 -101 602 -101 c 256
 649 -101 679 -127 679 -178 c 256
 679 -220 656 -254 605 -254 c 256
 555 -254 537 -214 534 -202 c 257
 517 -213 l 257
 522 -254 563 -293 603 -293 c 256
 666 -293 721 -259 721 -178 c 256
 721 -108 678 -59 602 -59 c 256
 533 -59 491 -115 491 -179 c 256
 491 -276 589 -349 737 -349 c 256
 892 -349 992 -237 992 -98 c 256
  PathStart: -2
801 -85 m 257
 801 559 l 257
 759 559 l 257
 759 -85 l 257
 801 -85 l 257
EndSplineSet
EndChar

StartChar: tml_Ai
Encoding: 6 2960 6
GlifName: tml_A_i
Width: 749
VWidth: 0
Flags: W
LayerCount: 2
Back
Fore
SplineSet
390 -57 m 257
 390 -57 418 -153 542 -153 c 256
 719 -153 718 12 697 81 c 257
 697 81 655 75 655 75 c 257
 687 -22 643 -110 546 -111 c 256
 457 -112 413 -54 413 74 c 257
 413 74 370 74 370 74 c 257
 370 -78 307 -113 223 -113 c 256
 137 -113 75 -54 75 21 c 256
 75 143 178 153 369 174 c 256
 523 191 726 202 726 402 c 256
 726 509 663 581 555 581 c 256
 424 581 375 469 372 299 c 257
 414 299 l 257
 413 431 449 539 555 539 c 256
 647 539 684 482 684 402 c 256
 684 256 539 239 368 218 c 256
 213 199 33 197 33 21 c 256
 33 -99 126 -155 217 -155 c 256
 370 -155 390 -57 390 -57 c 257
  PathStart: -2
272 362 m 256
 272 467 199 495 157 495 c 256
 102 495 41 453 41 380 c 257
 72 369 l 257
 72 405 94 455 159 455 c 256
 203 455 232 417 232 362 c 256
 232 318 200 274 152 274 c 256
 108 274 72 305 72 370 c 256
 72 489 137 542 228 542 c 256
 340 542 374 432 372 299 c 257
 414 299 l 257
 413 426 391 581 231 582 c 256
 116 583 31 513 30 384 c 256
 29 294 71 234 152 234 c 256
 214 234 272 273 272 362 c 256
  PathStart: -2
EndSplineSet
EndChar

StartChar: tml_CU
Encoding: 10 -1 10
GlifName: tml_C_U_
Width: 638
VWidth: 0
Flags: W
LayerCount: 2
Back
Fore
SplineSet
524 0 m 256
 524 307 l 257
 482 307 l 257
 482 0 l 257
 524 0 l 256
608 299 m 256
 608 341 l 257
 512 341 l 257
 512 299 l 257
 608 299 l 256
EndSplineSet
Refer: 12 2970 N 1 0 0 1 0 0 2
EndChar

StartChar: tml_CUu
Encoding: 11 -1 11
GlifName: tml_C_U_u
Width: 974
VWidth: 0
Flags: W
LayerCount: 2
Back
Fore
SplineSet
902 22 m 256
 902 121 858 179 789 179 c 256
 725 179 693 118 693 55 c 257
 726 25 l 257
 726 49 722 137 789 137 c 256
 836 137 860 92 860 25 c 256
 860 -88 753 -232 525 -232 c 256
 236 -232 101 -30 101 218 c 256
 101 352 146 474 200 545 c 257
 162 564 l 257
 101 482 57 358 58 217 c 256
 59 -94 240 -273 525 -274 c 256
 765 -275 902 -126 902 22 c 256
  PathStart: -2
726 0 m 256
 726 307 l 257
 684 307 l 257
 684 0 l 257
 726 0 l 256
810 299 m 256
 810 341 l 257
 714 341 l 257
 714 299 l 257
 810 299 l 256
EndSplineSet
Refer: 12 2970 N 1 0 0 1 202 0 2
EndChar

StartChar: tml_Ca
Encoding: 12 2970 12
GlifName: tml_C_a
Width: 552
VWidth: 0
Flags: W
LayerCount: 2
Back
Fore
SplineSet
389 207 m 258
 389 518 l 257
 512 518 l 257
 512 560 l 257
 149 560 l 257
 149 309 l 257
 191 309 l 257
 191 518 l 257
 347 518 l 257
 347 301 l 257
 347 289 l 257
 347 207 l 258
 347 86 282 43 209 43 c 256
 128 43 72 96 72 177 c 256
 72 248 114 299 201 299 c 258
 512 299 l 257
 512 341 l 257
 183 341 l 258
 86 341 27 272 30 175 c 256
 33 68 104 1 213 1 c 256
 348 1 389 104 389 207 c 258
  PathStart: -2
EndSplineSet
EndChar

StartChar: tml_Day
Encoding: 14 3059 14
GlifName: tml_D_ay
Width: 600
VWidth: 0
Flags: W
LayerCount: 2
Back
Fore
SplineSet
304 171 m 256
 304 291 244 354 177 354 c 256
 107 354 45 290 44 168 c 257
 78 148 l 257
 71 236 108 314 174 314 c 256
 227 314 264 265 264 172 c 256
 264 84 231 22 173 22 c 256
 89 22 71 151 71 238 c 256
 71 407 138 531 257 531 c 256
 359 531 420 428 420 281 c 256
 420 169 381 63 367 34 c 257
 401 1 l 257
 433 84 463 174 463 280 c 256
 463 475 369 571 255 571 c 256
 111 571 30 434 30 237 c 256
 30 86 78 -20 171 -20 c 256
 252 -20 304 59 304 171 c 256
  PathStart: -2
587 1 m 257
 587 43 l 257
 416 43 l 257
 367 34 l 257
 367 1 l 257
 587 1 l 257
EndSplineSet
EndChar

StartChar: tml_E
Encoding: 16 2958 16
GlifName: tml_E_
Width: 582
VWidth: 0
Flags: W
LayerCount: 2
Back
Fore
SplineSet
304 167 m 256
 304 287 244 350 177 350 c 256
 107 350 45 286 44 164 c 257
 78 144 l 257
 71 232 108 310 174 310 c 256
 227 310 264 261 264 168 c 256
 264 80 231 18 173 18 c 256
 89 18 71 147 71 234 c 256
 71 403 138 520 257 520 c 257
 427 520 l 257
 427 0 l 257
 469 0 l 257
 469 520 l 257
 572 520 l 257
 572 560 l 257
 255 560 l 257
 111 560 30 430 30 233 c 256
 30 82 78 -24 171 -24 c 256
 252 -24 304 55 304 167 c 256
  PathStart: -2
EndSplineSet
EndChar

StartChar: tml_Ee
Encoding: 17 2959 17
GlifName: tml_E_e
Width: 582
VWidth: 0
Flags: W
LayerCount: 2
Back
Fore
SplineSet
469 0 m 257
 428 17 l 257
 181 -214 l 257
 207 -241 l 257
 469 0 l 257
EndSplineSet
Refer: 16 2958 N 1 0 0 1 0 0 2
EndChar

StartChar: tml_Five
Encoding: 19 3051 19
GlifName: tml_F_ive
Width: 1138
VWidth: 0
Flags: W
LayerCount: 2
Back
Fore
SplineSet
863 107 m 256
 863 235 810 339 709 339 c 256
 652 339 603 293 603 222 c 257
 627 204 l 257
 627 243 650 299 707 299 c 256
 758 299 821 252 821 107 c 256
 821 -31 750 -222 512 -223 c 256
 273 -224 83 -20 83 254 c 256
 83 579 266 758 541 758 c 256
 774 758 1013 641 1013 285 c 256
 1013 143 1013 143 1013 -1 c 257
 1057 -1 l 257
 1057 309 l 258
 1057 594 876 802 535 801 c 256
 224 800 41 575 41 254 c 256
 41 -70 267 -264 502 -265 c 256
 780 -266 863 -66 863 107 c 256
  PathStart: -2
207 527 m 1281
384 0 m 257
 384 518 l 257
 585 518 l 257
 585 0 l 257
 621 0 591 0 627 0 c 257
 627 518 l 257
 746 518 l 257
 746 560 l 257
 342 560 l 257
 342 0 l 257
 384 0 l 257
EndSplineSet
EndChar

StartChar: tml_Four
Encoding: 20 3050 20
GlifName: tml_F_our
Width: 552
VWidth: 0
Flags: W
LayerCount: 2
Back
Fore
SplineSet
628 299 m 257
 628 560 l 257
 586 560 l 257
 586 341 l 257
 459 341 l 257
 459 344 l 257
 459 299 l 257
 628 299 l 257
EndSplineSet
Refer: 12 2970 N 1 0 0 1 0 0 2
EndChar

StartChar: tml_Ha
Encoding: 21 3001 21
GlifName: tml_H_a
Width: 1244
VWidth: 0
Flags: W
LayerCount: 2
Back
Fore
SplineSet
104 -236 m 257
 105 -197 111 -138 193 -138 c 258
 948 -137 l 258
 1175 -137 1214 2 1214 234 c 256
 1214 461 1180 573 1038 573 c 256
 939 573 896 498 896 431 c 257
 921 390 l 257
 922 470 950 534 1035 534 c 256
 1149 534 1172 446 1172 234 c 256
 1172 23 1140 -96 942 -96 c 258
 188 -96 l 258
 122 -96 63 -129 62 -236 c 257
 104 -236 l 257
304 171 m 256
 304 291 244 354 177 354 c 256
 107 354 45 290 44 168 c 257
 78 148 l 257
 71 236 108 314 174 314 c 256
 227 314 264 265 264 172 c 256
 264 84 231 22 173 22 c 256
 89 22 71 151 71 238 c 256
 71 407 138 531 257 531 c 256
 359 531 420 428 420 281 c 256
 420 169 381 63 367 34 c 257
 401 1 l 257
 433 84 463 174 463 280 c 256
 463 475 369 571 255 571 c 256
 111 571 30 434 30 237 c 256
 30 86 78 -20 171 -20 c 256
 252 -20 304 59 304 171 c 256
  PathStart: -2
657 1 m 257
 657 209 l 257
 615 209 l 257
 615 43 l 257
 416 43 l 257
 367 34 l 257
 367 1 l 257
 657 1 l 257
657 80 m 257
 657 393 l 258
 657 483 700 531 770 531 c 256
 842 531 878 493 878 390 c 257
 914 426 l 257
 911 524 852 573 776 574 c 256
 671 575 615 502 615 404 c 258
 615 80 l 257
 657 80 l 257
920 0 m 257
 922 460 l 257
 878 460 l 257
 878 0 l 257
 920 0 l 257
EndSplineSet
EndChar

StartChar: tml_Hundred
Encoding: 22 3057 22
GlifName: tml_H_undred
Width: 768
VWidth: 0
Flags: W
LayerCount: 2
Back
Fore
SplineSet
332 1 m 257
 332 519 l 257
 556 519 l 257
 556 1 l 257
 598 1 l 257
 598 519 l 257
 708 519 l 257
 708 561 l 257
 303 561 l 257
 290 504 l 257
 290 1 l 257
 332 1 l 257
87 1 m 257
 87 416 l 258
 87 508 131 536 185 536 c 256
 264 536 290 484 290 391 c 257
 322 402 l 257
 322 529 263 578 180 578 c 256
 91 578 45 515 45 423 c 258
 45 1 l 257
 87 1 l 257
EndSplineSet
EndChar

StartChar: tml_I
Encoding: 23 2951 23
GlifName: tml_I_
Width: 969
VWidth: 0
Flags: W
LayerCount: 2
Back
Fore
SplineSet
734 307 m 256
 734 469 636 573 501 573 c 256
 379 573 293 489 293 385 c 256
 293 300 350 249 424 249 c 256
 501 249 551 303 551 376 c 256
 551 444 507 510 430 510 c 256
 352 510 306 443 306 383 c 257
 335 384 l 257
 336 432 370 469 423 469 c 256
 479 469 509 428 509 379 c 256
 509 327 474 291 424 291 c 256
 373 291 335 327 335 383 c 256
 335 445 381 531 496 531 c 256
 608 531 692 448 692 315 c 256
 692 63 414 -168 216 -168 c 256
 132 -168 72 -120 72 -47 c 256
 72 60 195 174 417 174 c 256
 643 174 773 56 773 -49 c 256
 773 -116 719 -168 616 -168 c 256
 400 -168 128 61 128 357 c 256
 128 561 257 711 512 711 c 256
 761 711 897 567 897 223 c 258
 897 0 l 257
 939 0 l 257
 939 239 l 258
 939 586 803 754 513 754 c 256
 245 754 83 610 83 362 c 256
 83 25 382 -210 614 -210 c 256
 716 -210 815 -164 815 -46 c 256
 815 129 595 216 424 216 c 256
 260 216 30 135 30 -46 c 256
 30 -160 120 -210 218 -210 c 256
 431 -210 734 23 734 307 c 256
  PathStart: -2
EndSplineSet
EndChar

StartChar: tml_Ii
Encoding: 24 2952 24
GlifName: tml_I_i
Width: 600
VWidth: 0
Flags: W
LayerCount: 2
Back
Fore
SplineSet
88 0 m 257
 88 518 l 257
 337 518 l 257
 334 0 l 257
 370 0 343 0 379 0 c 257
 382 518 l 257
 575 518 l 257
 575 560 l 257
 46 560 l 257
 46 0 l 257
 88 0 l 257
252 255 m 256
 252 276 236 292 215 292 c 256
 194 292 177 276 177 255 c 256
 177 234 194 217 215 217 c 256
 236 217 252 234 252 255 c 256
  PathStart: -2
532 255 m 256
 532 276 516 292 495 292 c 256
 474 292 457 276 457 255 c 256
 457 234 474 217 495 217 c 256
 516 217 532 234 532 255 c 256
  PathStart: -2
EndSplineSet
EndChar

StartChar: tml_Ja
Encoding: 25 2972 25
GlifName: tml_J_a
Width: 756
VWidth: 0
Flags: W
LayerCount: 2
Back
Fore
SplineSet
554 82 m 256
 619 82 656 47 656 -14 c 256
 656 -96 587 -111 548 -112 c 257
 454 -112 l 257
 454 -154 l 257
 551 -154 l 257
 632 -156 700 -100 700 -14 c 256
 700 63 655 124 561 124 c 256
 381 124 347 -113 205 -113 c 256
 119 -113 65 -54 65 21 c 256
 65 141 198 155 359 174 c 256
 513 192 716 205 716 402 c 256
 716 516 646 578 548 578 c 256
 416 578 365 459 362 299 c 257
 404 299 l 257
 403 431 439 539 545 539 c 256
 637 539 674 480 674 402 c 256
 674 258 528 242 358 218 c 256
 216 198 23 197 23 21 c 256
 23 -99 108 -155 199 -155 c 256
 391 -155 406 82 554 82 c 256
  PathStart: -2
262 362 m 256
 262 467 189 495 147 495 c 256
 92 495 31 453 31 380 c 257
 62 369 l 257
 62 405 84 455 149 455 c 256
 193 455 222 417 222 362 c 256
 222 318 190 274 142 274 c 256
 98 274 62 305 62 370 c 256
 62 489 127 542 218 542 c 256
 330 542 364 432 362 299 c 257
 404 299 l 257
 403 426 379 580 219 582 c 256
 121 583 21 513 20 384 c 256
 19 294 61 234 142 234 c 256
 204 234 262 273 262 362 c 256
  PathStart: -2
EndSplineSet
EndChar

StartChar: tml_KSsa
Encoding: 26 -1 26
GlifName: tml_K_S_sa
Width: 1402
VWidth: 0
Flags: W
LayerCount: 2
Back
Fore
SplineSet
1227 -146 m 257
 1227 438 l 258
 1227 463 1227 573 1110 573 c 256
 1035 573 968 507 969 410 c 256
 971 240 1080 155 1198 155 c 256
 1338 155 1367 271 1367 376 c 257
 1330 379 l 257
 1329 298 1304 197 1198 197 c 256
 1080 197 1011 299 1011 400 c 256
 1011 456 1034 531 1117 531 c 256
 1162 531 1185 491 1185 438 c 258
 1185 -146 l 257
 1227 -146 l 257
774 171 m 256
 774 291 714 354 647 354 c 256
 577 354 515 290 514 168 c 257
 548 148 l 257
 541 236 578 314 644 314 c 256
 697 314 734 265 734 172 c 256
 734 84 701 22 643 22 c 256
 559 22 541 151 541 238 c 256
 541 407 608 531 727 531 c 256
 829 531 890 428 890 281 c 256
 890 169 851 63 837 34 c 257
 871 1 l 257
 903 84 933 174 933 280 c 256
 933 475 839 571 725 571 c 256
 581 571 500 434 500 237 c 256
 500 86 548 -20 641 -20 c 256
 722 -20 774 59 774 171 c 256
  PathStart: -2
1372 1 m 257
 1372 472 l 257
 1330 472 l 257
 1330 43 l 257
 886 43 l 257
 837 34 l 257
 837 1 l 257
 1372 1 l 257
EndSplineSet
Refer: 12 2970 N 1 0 0 1 0 0 2
EndChar

StartChar: tml_KU
Encoding: 27 -1 27
GlifName: tml_K_U_
Width: 850
VWidth: 0
Flags: W
LayerCount: 2
Back
Fore
SplineSet
822 73 m 256
 831 270 709 341 609 341 c 257
 380 341 l 258
 283 341 224 272 227 175 c 256
 230 68 301 1 410 1 c 256
 545 1 586 104 586 207 c 258
 586 518 l 257
 709 518 l 257
 709 560 l 257
 346 560 l 257
 346 309 l 257
 388 309 l 257
 388 518 l 257
 544 518 l 257
 544 301 l 257
 544 289 l 257
 544 207 l 258
 544 86 479 43 406 43 c 256
 325 43 269 96 269 177 c 256
 269 248 311 299 398 299 c 258
 599 299 l 257
 706 299 780 250 780 73 c 256
 780 -122 631 -232 447 -232 c 256
 248 -232 89 -80 86 129 c 256
 84 270 137 367 196 438 c 257
 158 457 l 257
 94 380 44 273 44 129 c 256
 44 -112 223 -274 447 -274 c 256
 639 -274 810 -179 822 73 c 256
  PathStart: -2
EndSplineSet
EndChar

StartChar: tml_KUu
Encoding: 28 -1 28
GlifName: tml_K_U_u
Width: 1085
VWidth: 0
Flags: W
LayerCount: 2
Back
Fore
SplineSet
760 145 m 256
 760 291 650 341 557 341 c 257
 466 341 l 257
 466 299 l 257
 552 299 l 257
 616 299 720 268 720 146 c 256
 720 81 702 22 640 22 c 256
 556 22 531 151 531 238 c 256
 531 407 598 531 717 531 c 256
 819 531 880 428 880 281 c 256
 880 169 841 63 827 34 c 257
 861 1 l 257
 893 84 923 174 923 280 c 256
 923 475 829 571 715 571 c 256
 571 571 490 434 490 237 c 256
 490 86 548 -20 638 -20 c 256
 721 -20 760 51 760 145 c 256
  PathStart: -2
1055 1 m 257
 1055 43 l 257
 876 43 l 257
 827 34 l 257
 827 1 l 257
 1055 1 l 257
EndSplineSet
Refer: 12 2970 N 1 0 0 1 0 0 2
EndChar

StartChar: tml_Ka
Encoding: 29 2965 29
GlifName: tml_K_a
Width: 641
VWidth: 0
Flags: W
LayerCount: 2
Back
Fore
SplineSet
213 1 m 256
 348 1 389 104 389 207 c 258
 389 518 l 257
 512 518 l 257
 512 560 l 257
 149 560 l 257
 149 309 l 257
 191 309 l 257
 191 518 l 257
 347 518 l 257
 347 301 l 257
 347 289 l 257
 347 207 l 258
 347 86 282 43 209 43 c 256
 128 43 72 96 72 177 c 256
 72 248 114 299 201 299 c 258
 417 299 l 257
 520 299 569 257 569 167 c 256
 569 105 543 42 441 42 c 258
 425 42 l 257
 425 0 l 257
 446 0 l 257
 538 0 611 43 611 167 c 256
 611 275 554 341 432 341 c 257
 183 341 l 258
 86 341 27 272 30 175 c 256
 33 68 104 1 213 1 c 256
  PathStart: -2
EndSplineSet
EndChar

StartChar: tml_LU
Encoding: 30 -1 30
GlifName: tml_L_U_
Width: 874
VWidth: 0
Flags: W
LayerCount: 2
Back
Fore
SplineSet
583 0 m 257
 541 0 l 257
 541 -190 461 -300 299 -300 c 256
 169 -300 99 -248 99 -198 c 256
 99 -156 122 -148 159 -148 c 257
 844 -148 l 257
 844 573 l 257
 802 573 l 257
 802 -106 l 257
 152 -106 l 257
 104 -106 57 -131 57 -193 c 256
 57 -275 137 -342 303 -342 c 256
 519 -342 583 -173 583 0 c 257
  PathStart: -2
EndSplineSet
Refer: 32 2994 N 1 0 0 1 0 0 2
EndChar

StartChar: tml_LUu
Encoding: 31 -1 31
GlifName: tml_L_U_u
Width: 1194
VWidth: 0
Flags: W
LayerCount: 2
Back
Fore
SplineSet
1066 -13 m 257
 1066 531 l 257
 1166 531 l 257
 1166 573 l 257
 844 573 l 257
 844 531 l 257
 1024 531 l 257
 1024 -13 l 257
 1066 -13 l 257
EndSplineSet
Refer: 30 -1 N 1 0 0 1 0 0 2
EndChar

StartChar: tml_La
Encoding: 32 2994 32
GlifName: tml_L_a
Width: 739
VWidth: 0
Flags: W
LayerCount: 2
Back
Fore
SplineSet
304 171 m 256
 304 291 244 354 177 354 c 256
 107 354 45 290 44 168 c 257
 78 148 l 257
 71 236 108 314 174 314 c 256
 227 314 264 265 264 172 c 256
 264 84 231 22 173 22 c 256
 89 22 71 151 71 238 c 256
 71 407 126 531 248 531 c 256
 346 531 400 454 396 352 c 257
 393 194 l 257
 387 61 450 -23 546 -23 c 256
 682 -23 709 152 709 253 c 256
 709 398 653 524 589 584 c 257
 552 561 l 257
 637 475 666 363 666 249 c 256
 666 84 605 21 545 21 c 256
 470 21 426 92 432 198 c 257
 435 342 l 257
 439 475 376 571 247 571 c 256
 108 571 30 434 30 237 c 256
 30 86 78 -20 171 -20 c 256
 252 -20 304 59 304 171 c 256
  PathStart: -2
EndSplineSet
EndChar

StartChar: tml_LlU
Encoding: 33 -1 33
GlifName: tml_L_lU_
Width: 1152
VWidth: 0
Flags: W
LayerCount: 2
Back
Fore
SplineSet
1122 107 m 256
 1122 235 1069 339 968 339 c 256
 911 339 862 293 862 222 c 257
 886 204 l 257
 886 243 909 299 966 299 c 256
 1017 299 1080 252 1080 107 c 256
 1080 -73 919 -222 621 -223 c 256
 222 -224 72 10 72 244 c 256
 72 379 125 504 166 551 c 257
 126 570 l 257
 97 532 30 418 30 244 c 256
 30 -40 219 -264 615 -265 c 256
 935 -266 1122 -109 1122 107 c 256
  PathStart: -2
EndSplineSet
Refer: 35 2995 N 1 0 0 1 165 0 2
EndChar

StartChar: tml_LlUu
Encoding: 34 -1 34
GlifName: tml_L_lU_u
Width: 1304
VWidth: 0
Flags: W
LayerCount: 2
Back
Fore
SplineSet
1274 120 m 256
 1274 248 1221 339 1120 339 c 256
 1063 339 1014 293 1014 222 c 257
 1038 204 l 257
 1038 243 1061 299 1118 299 c 256
 1169 299 1232 265 1232 120 c 256
 1232 -100 986 -222 688 -223 c 256
 379 -224 76 -15 76 239 c 256
 76 316 91 531 229 531 c 257
 278 531 313 495 313 428 c 256
 313 373 281 329 233 329 c 256
 184 329 156 379 156 425 c 256
 156 465 172 531 229 531 c 257
 220 555 l 257
 138 553 114 472 114 419 c 256
 114 362 154 287 233 287 c 256
 316 287 355 362 355 428 c 256
 355 492 318 573 227 573 c 257
 131 574 34 475 34 230 c 256
 34 -66 385 -264 682 -265 c 256
 1002 -266 1274 -138 1274 120 c 256
  PathStart: -2
EndSplineSet
Refer: 35 2995 N 1 0 0 1 317 0 2
EndChar

StartChar: tml_Lla
Encoding: 35 2995 35
GlifName: tml_L_la
Width: 887
VWidth: 0
Flags: W
LayerCount: 2
Back
Fore
SplineSet
314 171 m 256
 314 291 254 354 187 354 c 256
 117 354 55 290 54 168 c 257
 88 148 l 257
 81 236 118 314 184 314 c 256
 237 314 274 265 274 172 c 256
 274 84 241 22 183 22 c 256
 99 22 81 151 81 238 c 256
 81 407 148 531 267 531 c 256
 369 531 430 442 430 281 c 257
 473 280 l 257
 473 485 379 571 265 571 c 256
 121 571 40 434 40 237 c 256
 40 86 88 -20 181 -20 c 256
 262 -20 314 59 314 171 c 256
  PathStart: -2
473 1 m 257
 473 518 l 257
 679 518 l 257
 679 1 l 257
 721 1 l 257
 721 518 l 257
 857 518 l 257
 857 560 l 257
 430 560 l 257
 430 466 l 257
 430 462 l 257
 430 1 l 257
 473 1 l 257
EndSplineSet
EndChar

StartChar: tml_LllU
Encoding: 36 -1 36
GlifName: tml_L_llU_
Width: 854
VWidth: 0
Flags: W
LayerCount: 2
Back
Fore
SplineSet
743 -188 m 256
 743 -47 562 -49 537 -92 c 257
 538 33 l 257
 496 32 l 257
 495 -140 l 257
 537 -140 l 257
 553 -92 701 -80 701 -189 c 256
 701 -282 594 -344 463 -344 c 256
 195 -344 72 -87 72 161 c 256
 72 338 135 485 177 553 c 257
 138 572 l 257
 79 475 30 333 30 162 c 256
 30 -143 185 -386 471 -386 c 256
 654 -386 743 -287 743 -188 c 256
  PathStart: -2
EndSplineSet
Refer: 41 2990 N 1 0 0 1 240 0 2
EndChar

StartChar: tml_LllUu
Encoding: 37 -1 37
GlifName: tml_L_llU_u
Width: 874
VWidth: 0
Flags: W
LayerCount: 2
Back
Fore
SplineSet
743 -188 m 256
 743 -47 562 -49 537 -92 c 257
 538 33 l 257
 496 32 l 257
 495 -140 l 257
 537 -140 l 257
 553 -92 701 -80 701 -189 c 256
 701 -292 547 -344 414 -344 c 256
 146 -344 -48 -87 -48 161 c 256
 -48 238 -40 531 109 531 c 257
 158 531 193 495 193 428 c 256
 193 373 161 329 113 329 c 256
 64 329 36 379 36 425 c 256
 36 465 52 531 109 531 c 257
 100 545 l 257
 30 543 -6 472 -6 419 c 256
 -6 362 34 287 113 287 c 256
 196 287 235 362 235 428 c 256
 235 492 198 573 107 573 c 257
 11 574 -90 467 -90 162 c 256
 -90 -143 136 -386 422 -386 c 256
 634 -386 743 -287 743 -188 c 256
  PathStart: -2
EndSplineSet
Refer: 41 2990 N 1 0 0 1 240 0 2
EndChar

StartChar: tml_Llla
Encoding: 38 2996 38
GlifName: tml_L_lla
Width: 600
VWidth: 0
Flags: W
LayerCount: 2
Back
Fore
SplineSet
411 -146 m 257
 411 -143 384 -159 384 -159 c 257
 537 -159 l 257
 537 -119 l 257
 498 -119 418 -119 392 -119 c 257
 317 -119 298 -47 298 8 c 257
 298 442 l 257
 298 514 324 535 378 535 c 256
 471 535 542 445 542 299 c 256
 542 139 480 41 347 42 c 257
 72 42 l 257
 72 559 l 257
 30 559 l 257
 30 0 l 257
 355 0 l 257
 511 0 585 114 584 299 c 256
 583 426 534 577 376 576 c 256
 296 575 256 529 256 456 c 257
 256 8 l 257
 256 -126 348 -159 386 -159 c 257
 383 -162 377 -138 377 -138 c 257
 377 -138 347 -251 230 -251 c 256
 118 -251 72 -164 72 -83 c 257
 30 -83 l 257
 30 -206 109 -293 230 -293 c 256
 357 -293 411 -177 411 -146 c 257
  PathStart: -2
EndSplineSet
EndChar

StartChar: tml_MU
Encoding: 39 -1 39
GlifName: tml_M_U_
Width: 934
VWidth: 0
Flags: W
LayerCount: 2
Back
Fore
SplineSet
598 29 m 257
 556 29 l 257
 556 -116 487 -215 358 -215 c 256
 170 -215 85 -47 85 174 c 256
 85 325 141 462 202 555 c 257
 167 573 l 257
 103 483 43 334 43 164 c 256
 43 -81 149 -257 358 -257 c 256
 493 -257 598 -170 598 29 c 257
  PathStart: -2
EndSplineSet
Refer: 41 2990 N 1 0 0 1 300 0 2
EndChar

StartChar: tml_MUu
Encoding: 40 -1 40
GlifName: tml_M_U_u
Width: 990
VWidth: 0
Flags: W
LayerCount: 2
Back
Fore
SplineSet
674 29 m 257
 632 29 l 257
 632 -101 548 -225 392 -225 c 256
 185 -225 72 -24 72 196 c 256
 72 338 117 531 230 531 c 256
 281 531 313 497 313 424 c 256
 313 371 279 329 232 329 c 256
 181 329 150 379 150 425 c 256
 150 499 189 531 230 531 c 257
 227 555 l 257
 140 555 113 468 113 415 c 256
 113 356 154 287 233 287 c 256
 316 287 355 362 355 428 c 256
 355 492 318 573 227 573 c 256
 72 573 30 334 30 181 c 256
 30 -99 189 -267 392 -267 c 256
 541 -267 674 -160 674 29 c 257
  PathStart: -2
EndSplineSet
Refer: 41 2990 N 1 0 0 1 376 0 2
EndChar

StartChar: tml_Ma
Encoding: 41 2990 41
GlifName: tml_M_a
Width: 614
VWidth: 0
Flags: W
LayerCount: 2
Back
Fore
SplineSet
584 299 m 256
 583 426 528 577 365 576 c 256
 285 575 256 504 256 434 c 257
 256 28 l 256
 298 28 l 257
 298 432 l 257
 298 514 342 534 376 534 c 256
 469 534 542 445 542 299 c 256
 542 139 480 41 347 42 c 257
 355 0 l 257
 511 0 585 114 584 299 c 256
  PathStart: -2
359 0 m 257
 352 42 l 257
 72 42 l 257
 72 559 l 257
 30 559 l 257
 30 0 l 257
 359 0 l 257
EndSplineSet
EndChar

StartChar: tml_MatraAi
Encoding: 43 3016 43
GlifName: tml_M_atraA_i
Width: 966
VWidth: 0
Flags: W
LayerCount: 2
Back
Fore
SplineSet
674 214 m 256
 674 470 503 569 348 569 c 256
 172 569 50 434 50 237 c 256
 50 86 98 -20 191 -20 c 256
 272 -20 324 59 324 171 c 256
 324 291 264 354 197 354 c 256
 127 354 65 290 64 168 c 257
 98 148 l 257
 91 236 128 314 194 314 c 256
 247 314 284 265 284 172 c 256
 284 84 251 22 193 22 c 256
 109 22 91 151 91 238 c 256
 91 407 205 528 347 528 c 256
 470 528 632 455 632 214 c 256
 632 115 604 19 526 19 c 256
 447 19 416 115 416 214 c 256
 416 388 486 528 659 528 c 256
 802 528 894 437 894 266 c 256
 894 96 809 36 755 24 c 257
 762 -16 l 257
 864 0 932 90 936 257 c 256
 942 494 797 568 660 568 c 256
 468 568 374 425 374 214 c 256
 374 75 424 -23 526 -23 c 256
 631 -23 674 73 674 214 c 256
  PathStart: -2
EndSplineSet
EndChar

StartChar: tml_MatraE
Encoding: 46 3014 46
GlifName: tml_M_atraE_
Width: 600
VWidth: 0
Flags: W
LayerCount: 2
Back
Fore
SplineSet
327 187 m 256
 327 311 277 399 188 399 c 256
 109 399 48 330 54 182 c 257
 90 140 l 257
 72 258 111 358 188 358 c 256
 262 358 287 265 287 180 c 256
 287 95 262 12 194 12 c 256
 87 12 72 220 72 343 c 256
 72 593 170 763 334 763 c 256
 488 763 494 564 494 384 c 257
 495 0 l 257
 537 0 l 257
 537 395 l 258
 537 546 540 807 338 807 c 256
 117 807 30 568 30 350 c 256
 30 221 48 -30 192 -30 c 256
 285 -30 327 73 327 187 c 256
  PathStart: -2
EndSplineSet
EndChar

StartChar: tml_MatraEe
Encoding: 47 3015 47
GlifName: tml_M_atraE_e
Width: 488
VWidth: 0
Flags: W
LayerCount: 2
Back
Fore
SplineSet
418 159 m 256
 418 277 367 343 296 343 c 256
 213 343 167 263 171 157 c 256
 175 58 218 1 296 -1 c 257
 296 21 l 257
 246 21 214 82 213 152 c 256
 211 262 249 301 297 301 c 256
 343 301 378 251 378 152 c 256
 378 101 359 21 296 21 c 256
 152 21 62 165 62 394 c 256
 62 593 152 767 296 767 c 256
 359 767 378 697 378 636 c 256
 378 536 343 487 297 487 c 256
 249 487 211 532 213 636 c 256
 214 698 236 767 296 767 c 257
 296 789 l 257
 218 787 175 738 171 629 c 256
 167 523 213 445 296 445 c 256
 367 445 418 511 418 629 c 256
 418 716 392 806 289 806 c 256
 150 806 20 659 20 394 c 256
 20 99 150 -18 289 -18 c 256
 390 -18 418 68 418 159 c 256
  PathStart: -2
EndSplineSet
EndChar

StartChar: tml_NU
Encoding: 66 -1 66
GlifName: tml_N_U_
Width: 1049
VWidth: 0
Flags: W
LayerCount: 2
Back
Fore
SplineSet
888 195 m 256
 888 354 840 573 633 572 c 256
 429 571 341 425 341 214 c 256
 341 75 391 -23 493 -23 c 256
 598 -23 641 77 641 218 c 256
 641 474 481 572 326 572 c 256
 152 572 30 434 30 237 c 256
 30 86 78 -20 171 -20 c 256
 252 -20 299 59 299 171 c 256
 299 291 244 354 177 354 c 256
 107 354 45 290 44 168 c 257
 78 148 l 257
 71 236 108 314 174 314 c 256
 227 314 264 265 264 172 c 256
 264 84 231 22 173 22 c 256
 89 22 71 151 71 238 c 256
 71 407 177 531 326 531 c 256
 449 531 599 455 599 214 c 256
 599 115 571 19 493 19 c 256
 414 19 383 115 383 214 c 256
 383 388 465 531 633 531 c 256
 799 531 846 346 846 197 c 256
 846 -40 724 -300 411 -300 c 256
 167 -300 87 -238 87 -185 c 256
 87 -165 98 -148 155 -148 c 257
 1019 -148 l 257
 1019 573 l 257
 977 573 l 257
 977 -106 l 257
 158 -106 l 257
 99 -106 45 -118 45 -185 c 256
 45 -268 138 -342 411 -342 c 256
 753 -342 888 -68 888 195 c 256
  PathStart: -2
EndSplineSet
EndChar

StartChar: tml_NUu
Encoding: 67 -1 67
GlifName: tml_N_U_u
Width: 1371
VWidth: 0
Flags: W
LayerCount: 2
Back
Fore
SplineSet
1241 -13 m 257
 1241 531 l 257
 1341 531 l 257
 1341 573 l 257
 1019 573 l 257
 1019 531 l 257
 1199 531 l 257
 1199 -13 l 257
 1241 -13 l 257
EndSplineSet
Refer: 66 -1 N 1 0 0 1 0 0 2
EndChar

StartChar: tml_Na
Encoding: 68 2984 68
GlifName: tml_N_a
Width: 586
VWidth: 0
Flags: W
LayerCount: 2
Back
Fore
SplineSet
75 -236 m 257
 76 -197 82 -139 164 -138 c 258
 272 -137 l 257
 451 -135 556 -64 556 118 c 257
 556 118 l 257
 556 233 532 350 410 351 c 256
 321 352 276 275 274 210 c 257
 310 188 l 257
 310 264 353 311 405 311 c 256
 490 311 514 237 514 123 c 256
 514 -5 461 -94 266 -96 c 257
 159 -96 l 258
 93 -96 34 -129 33 -236 c 257
 75 -236 l 257
72 1 m 257
 72 518 l 257
 268 518 l 257
 268 1 l 257
 310 1 l 257
 310 518 l 257
 446 518 l 257
 446 560 l 257
 30 560 l 257
 30 1 l 257
 72 1 l 257
EndSplineSet
EndChar

StartChar: tml_Nga
Encoding: 70 2969 70
GlifName: tml_N_ga
Width: 681
VWidth: 0
Flags: W
LayerCount: 2
Back
Fore
SplineSet
72 0 m 257
 72 518 l 257
 232 518 l 257
 232 164 l 257
 274 164 l 257
 274 518 l 257
 386 518 l 257
 386 560 l 257
 30 560 l 257
 30 0 l 257
 72 0 l 257
628 0 m 257
 628 42 l 257
 232 42 l 257
 232 0 l 257
 628 0 l 257
503 249 m 256
 503 349 448 408 371 408 c 256
 293 408 238 348 238 275 c 257
 274 274 l 257
 274 319 303 366 362 366 c 256
 429 366 461 318 461 247 c 256
 461 144 400 42 243 42 c 257
 243 6 l 257
 428 6 503 118 503 249 c 256
  PathStart: -2
651 0 m 257
 651 560 l 257
 609 560 l 257
 609 0 l 257
 651 0 l 257
EndSplineSet
EndChar

StartChar: tml_Nine
Encoding: 71 3055 71
GlifName: tml_N_ine
Width: 552
VWidth: 0
Flags: W
LayerCount: 2
Back
Fore
SplineSet
885 165 m 256
 885 280 798 360 678 360 c 256
 564 360 451 298 451 142 c 256
 451 53 503 -1 574 -1 c 256
 649 -1 703 50 703 144 c 256
 703 205 686 351 489 341 c 257
 417 341 l 257
 430 299 l 257
 528 299 l 257
 598 297 661 246 661 144 c 256
 661 98 635 41 574 41 c 256
 523 41 493 90 493 146 c 256
 493 242 554 318 678 318 c 256
 769 318 843 257 843 165 c 256
 843 94 808 51 775 16 c 257
 775 16 807 -14 807 -14 c 257
 843 15 885 80 885 165 c 256
  PathStart: -2
EndSplineSet
Refer: 12 2970 N 1 0 0 1 0 0 2
EndChar

StartChar: tml_NnU
Encoding: 73 -1 73
GlifName: tml_N_nU_
Width: 820
VWidth: 0
Flags: W
LayerCount: 2
Back
Fore
SplineSet
605 79 m 256
 605 242 562 349 459 351 c 256
 371 352 325 276 323 210 c 257
 359 188 l 257
 359 264 401 311 457 311 c 256
 539 311 563 208 563 84 c 256
 563 -135 489 -300 274 -300 c 256
 160 -300 64 -253 64 -192 c 256
 64 -159 93 -148 132 -148 c 257
 790 -148 l 257
 790 560 l 257
 748 560 l 257
 748 -106 l 257
 135 -106 l 257
 75 -106 22 -128 22 -192 c 256
 22 -290 148 -342 276 -342 c 256
 525 -342 605 -144 605 79 c 256
  PathStart: -2
121 1 m 257
 121 518 l 257
 317 518 l 257
 317 1 l 257
 359 1 l 257
 359 518 l 257
 495 518 l 257
 495 560 l 257
 79 560 l 257
 79 1 l 257
 121 1 l 257
EndSplineSet
EndChar

StartChar: tml_NnUu
Encoding: 74 -1 74
GlifName: tml_N_nU_u
Width: 1142
VWidth: 0
Flags: W
LayerCount: 2
Back
Fore
SplineSet
1012 -26 m 257
 1012 518 l 257
 1112 518 l 257
 1112 560 l 257
 790 560 l 257
 790 518 l 257
 970 518 l 257
 970 -26 l 257
 1012 -26 l 257
EndSplineSet
Refer: 73 -1 N 1 0 0 1 0 0 2
EndChar

StartChar: tml_Nna
Encoding: 75 2979 75
GlifName: tml_N_na
Width: 1272
VWidth: 0
Flags: W
LayerCount: 2
Back
Fore
SplineSet
299 171 m 256
 299 291 244 354 177 354 c 256
 107 354 45 290 44 168 c 257
 78 148 l 257
 71 236 108 314 174 314 c 256
 227 314 264 265 264 172 c 256
 264 84 231 22 173 22 c 256
 89 22 71 151 71 238 c 256
 71 407 177 531 326 531 c 256
 449 531 599 455 599 214 c 256
 599 115 571 19 493 19 c 256
 414 19 383 115 383 214 c 256
 383 388 475 531 663 531 c 256
 786 531 941 455 941 214 c 256
 941 115 913 19 835 19 c 256
 756 19 725 115 725 214 c 256
 725 388 815 519 988 519 c 257
 1082 519 l 257
 1082 1 l 257
 1124 1 l 257
 1124 519 l 257
 1242 519 l 257
 1242 561 l 257
 987 561 l 257
 795 560 683 425 683 214 c 256
 683 75 733 -23 835 -23 c 256
 940 -23 983 77 983 218 c 256
 983 474 818 572 663 572 c 256
 456 571 341 425 341 214 c 256
 341 75 391 -23 493 -23 c 256
 598 -23 641 77 641 218 c 256
 641 474 481 572 326 572 c 256
 152 572 30 434 30 237 c 256
 30 86 78 -20 171 -20 c 256
 252 -20 299 59 299 171 c 256
  PathStart: -2
EndSplineSet
EndChar

StartChar: tml_NnnU
Encoding: 77 -1 77
GlifName: tml_N_nnU_
Width: 1391
VWidth: 0
Flags: W
LayerCount: 2
Back
Fore
SplineSet
1230 215 m 256
 1230 401 1159 574 977 573 c 256
 795 572 683 425 683 214 c 256
 683 75 733 -23 835 -23 c 256
 940 -23 983 77 983 218 c 256
 983 474 818 572 663 572 c 256
 456 571 341 425 341 214 c 256
 341 75 391 -23 493 -23 c 256
 598 -23 641 77 641 218 c 256
 641 474 481 572 326 572 c 256
 152 572 30 434 30 237 c 256
 30 86 78 -20 171 -20 c 256
 252 -20 299 59 299 171 c 256
 299 291 244 354 177 354 c 256
 107 354 45 290 44 168 c 257
 78 148 l 257
 71 236 108 314 174 314 c 256
 227 314 264 265 264 172 c 256
 264 84 231 22 173 22 c 256
 89 22 71 151 71 238 c 256
 71 407 177 531 326 531 c 256
 449 531 599 455 599 214 c 256
 599 115 571 19 493 19 c 256
 414 19 383 115 383 214 c 256
 383 388 475 531 663 531 c 256
 786 531 941 455 941 214 c 256
 941 115 913 19 835 19 c 256
 756 19 725 115 725 214 c 256
 725 388 815 531 978 531 c 256
 1104 531 1188 420 1188 217 c 256
 1188 10 1027 -300 574 -300 c 256
 274 -300 110 -238 110 -185 c 256
 110 -170 121 -148 178 -148 c 257
 1361 -148 l 257
 1361 573 l 257
 1319 573 l 257
 1319 -106 l 257
 231 -106 l 257
 156 -106 68 -106 68 -185 c 256
 68 -268 226 -342 574 -342 c 256
 1067 -342 1230 -20 1230 215 c 256
  PathStart: -2
EndSplineSet
EndChar

StartChar: tml_NnnUu
Encoding: 78 -1 78
GlifName: tml_N_nnU_u
Width: 1713
VWidth: 0
Flags: W
LayerCount: 2
Back
Fore
SplineSet
1583 -13 m 257
 1583 531 l 257
 1683 531 l 257
 1683 573 l 257
 1361 573 l 257
 1361 531 l 257
 1541 531 l 257
 1541 -13 l 257
 1583 -13 l 257
EndSplineSet
Refer: 77 -1 N 1 0 0 1 0 0 2
EndChar

StartChar: tml_Nnna
Encoding: 79 2985 79
GlifName: tml_N_nna
Width: 919
VWidth: 0
Flags: W
LayerCount: 2
Back
Fore
SplineSet
646 214 m 256
 646 470 481 572 326 572 c 257
 326 531 l 257
 449 531 604 455 604 214 c 256
 604 115 576 19 498 19 c 256
 419 19 388 115 388 214 c 256
 388 388 458 519 631 519 c 257
 745 519 l 257
 745 1 l 257
 787 1 l 257
 787 519 l 257
 905 519 l 257
 905 561 l 257
 630 561 l 257
 438 560 346 425 346 214 c 256
 346 75 396 -23 498 -23 c 256
 603 -23 646 73 646 214 c 256
  PathStart: -2
304 171 m 256
 304 291 244 354 177 354 c 256
 107 354 45 290 44 168 c 257
 78 148 l 257
 71 236 108 314 174 314 c 256
 227 314 264 265 264 172 c 256
 264 84 231 22 173 22 c 256
 89 22 71 151 71 238 c 256
 71 407 167 531 316 531 c 257
 316 572 l 257
 142 572 30 434 30 237 c 256
 30 86 78 -20 171 -20 c 256
 252 -20 304 59 304 171 c 256
  PathStart: -2
328 531 m 257
 328 572 l 257
 316 572 l 257
 316 531 l 257
 328 531 l 257
EndSplineSet
EndChar

StartChar: tml_NyU
Encoding: 81 -1 81
GlifName: tml_N_yU_
Width: 863
VWidth: 0
Flags: W
LayerCount: 2
Back
Fore
SplineSet
705 107 m 256
 705 235 652 339 551 339 c 256
 494 339 445 293 445 222 c 257
 469 204 l 257
 469 243 492 299 549 299 c 256
 600 299 663 252 663 107 c 256
 663 -177 529 -300 314 -300 c 256
 170 -300 64 -253 64 -192 c 256
 64 -159 93 -148 132 -148 c 257
 833 -148 l 257
 833 560 l 257
 791 560 l 257
 791 -106 l 257
 135 -106 l 257
 75 -106 22 -128 22 -192 c 256
 22 -290 168 -342 316 -342 c 256
 565 -342 705 -187 705 107 c 256
  PathStart: -2
EndSplineSet
Refer: 16 2958 N 1 0 0 1 0 0 2
EndChar

StartChar: tml_NyUu
Encoding: 82 -1 82
GlifName: tml_N_yU_u
Width: 1185
VWidth: 0
Flags: W
LayerCount: 2
Back
Fore
SplineSet
1055 -13 m 257
 1055 518 l 257
 1155 518 l 257
 1155 560 l 257
 833 560 l 257
 833 518 l 257
 1013 518 l 257
 1013 -13 l 257
 1055 -13 l 257
EndSplineSet
Refer: 81 -1 N 1 0 0 1 0 0 2
EndChar

StartChar: tml_Nya
Encoding: 83 2974 83
GlifName: tml_N_ya
Width: 882
VWidth: 0
Flags: W
AnchorPoint: "tml_virama" 473 2 basechar 0
LayerCount: 2
Back
Fore
SplineSet
852 121 m 256
 852 270 795 356 701 356 c 256
 620 356 581 292 581 223 c 257
 608 212 l 257
 607 247 619 316 697 316 c 256
 762 316 810 263 810 124 c 256
 810 -24 747 -231 475 -231 c 256
 214 -231 74 -27 74 227 c 256
 74 370 107 467 163 550 c 257
 126 572 l 257
 68 487 30 368 30 227 c 256
 30 -68 196 -274 474 -275 c 256
 763 -276 852 -67 852 121 c 256
  PathStart: -2
471 167 m 256
 471 287 411 350 344 350 c 256
 274 350 212 286 211 164 c 257
 245 144 l 257
 238 232 275 310 341 310 c 256
 394 310 431 261 431 168 c 256
 431 80 398 18 340 18 c 256
 256 18 238 147 238 234 c 256
 238 403 315 519 434 519 c 257
 432 560 l 257
 288 560 197 430 197 233 c 256
 197 82 245 -24 338 -24 c 256
 419 -24 471 55 471 167 c 256
  PathStart: -2
608 1 m 257
 608 519 l 257
 744 519 l 257
 744 560 l 257
 429 560 l 257
 431 519 l 257
 566 519 l 257
 566 1 l 257
 608 1 l 257
EndSplineSet
EndChar

StartChar: tml_O
Encoding: 84 2962 84
GlifName: tml_O_
Width: 663
VWidth: 0
Flags: W
LayerCount: 2
Back
Fore
SplineSet
303 285 m 256
 303 364 249 422 179 422 c 256
 99 422 51 366 51 293 c 257
 83 290 l 257
 83 341 115 380 176 380 c 256
 231 380 261 336 261 285 c 256
 261 231 224 188 172 188 c 256
 113 188 83 236 83 290 c 256
 83 443 181 568 354 568 c 256
 468 568 601 495 601 345 c 256
 601 256 563 194 491 194 c 256
 419 194 409 269 409 299 c 257
 367 299 l 257
 367 230 401 152 491 152 c 256
 578 152 643 226 643 340 c 256
 643 501 517 610 354 610 c 256
 158 610 41 483 41 307 c 256
 41 211 87 146 176 146 c 256
 246 146 303 204 303 285 c 256
  PathStart: -2
520 36 m 257
 501 31 l 257
 607 31 l 257
 607 73 l 257
 486 73 l 258
 431 73 408 108 408 169 c 256
 408 201 407 276 407 299 c 257
 367 299 l 257
 367 170 l 258
 367 83 414 33 488 33 c 257
 479 42 l 257
 479 -58 422 -122 332 -122 c 256
 232 -122 190 -40 190 23 c 257
 148 23 l 257
 148 -85 225 -164 332 -164 c 256
 448 -164 520 -78 520 36 c 257
  PathStart: -2
EndSplineSet
EndChar

StartChar: tml_Oo
Encoding: 87 2963 87
GlifName: tml_O_o
Width: 600
VWidth: 0
Flags: W
LayerCount: 2
Back
Fore
SplineSet
303 285 m 256
 303 364 249 422 179 422 c 256
 99 422 51 366 51 293 c 257
 83 290 l 257
 83 341 115 380 176 380 c 256
 231 380 261 336 261 285 c 256
 261 231 224 188 172 188 c 256
 113 188 83 236 83 290 c 256
 83 443 181 568 354 568 c 256
 468 568 601 495 601 345 c 256
 601 256 563 194 491 194 c 256
 419 194 409 269 409 299 c 257
 367 299 l 257
 367 230 401 152 491 152 c 256
 578 152 643 226 643 340 c 256
 643 501 517 610 354 610 c 256
 158 610 41 483 41 307 c 256
 41 211 87 146 176 146 c 256
 246 146 303 204 303 285 c 256
  PathStart: -2
520 36 m 257
 501 31 l 257
 607 31 l 257
 607 73 l 257
 486 73 l 258
 431 73 408 108 408 169 c 256
 408 201 407 276 407 299 c 257
 367 299 l 257
 367 170 l 258
 367 83 414 33 488 33 c 257
 479 42 l 257
 479 -58 420 -122 330 -122 c 256
 230 -122 168 -64 168 0 c 256
 168 34 185 79 245 79 c 256
 288 79 318 50 318 2 c 256
 318 -46 282 -86 236 -107 c 257
 260 -135 l 257
 312 -116 359 -69 359 7 c 256
 359 91 299 121 245 121 c 256
 201 121 128 96 128 0 c 256
 128 -108 231 -164 330 -164 c 256
 446 -164 520 -78 520 36 c 257
  PathStart: -2
EndSplineSet
EndChar

StartChar: tml_PUu
Encoding: 88 -1 88
GlifName: tml_P_U_u
Width: 661
VWidth: 0
Flags: W
LayerCount: 2
Back
Fore
SplineSet
631 -95 m 256
 631 -12 589 54 523 54 c 256
 466 54 441 7 441 -34 c 257
 480 -47 l 257
 480 -30 480 13 519 13 c 256
 561 13 589 -27 589 -95 c 256
 589 -221 463 -300 329 -300 c 256
 115 -300 68 -226 68 -171 c 256
 68 -120 95 -86 144 -86 c 256
 191 -86 221 -121 221 -169 c 256
 221 -212 189 -248 144 -247 c 256
 91 -246 68 -202 68 -171 c 257
 33 -181 l 257
 33 -246 104 -287 158 -287 c 256
 215 -287 263 -242 263 -168 c 256
 263 -98 220 -44 144 -44 c 256
 71 -44 26 -93 26 -171 c 256
 26 -278 137 -342 323 -342 c 256
 508 -342 631 -234 631 -95 c 256
  PathStart: -2
480 -153 m 257
 480 33 l 257
 438 32 l 257
 437 -153 l 257
 480 -153 l 257
EndSplineSet
Refer: 89 2986 N 1 0 0 1 0 0 2
EndChar

StartChar: tml_Pa
Encoding: 89 2986 89
GlifName: tml_P_a
Width: 510
VWidth: 0
Flags: W
LayerCount: 2
Back
Fore
SplineSet
480 1 m 257
 480 560 l 257
 436 560 l 257
 436 41 l 257
 74 41 l 257
 74 560 l 257
 30 560 l 257
 30 1 l 257
 480 1 l 257
EndSplineSet
EndChar

StartChar: tml_RU
Encoding: 90 -1 90
GlifName: tml_R_U_
Width: 882
VWidth: 0
Flags: W
LayerCount: 2
Back
Fore
SplineSet
852 107 m 256
 852 235 799 339 698 339 c 256
 641 339 592 293 592 222 c 257
 616 204 l 257
 616 243 639 299 696 299 c 256
 747 299 810 252 810 107 c 256
 810 -48 725 -222 495 -223 c 256
 236 -224 92 -53 92 224 c 256
 92 360 135 474 188 551 c 257
 152 574 l 257
 88 478 50 340 50 224 c 256
 50 -80 206 -264 485 -265 c 256
 763 -266 852 -66 852 107 c 256
  PathStart: -2
364 0 m 257
 364 518 l 257
 573 518 l 257
 570 0 l 257
 606 0 579 0 615 0 c 257
 618 518 l 257
 751 518 l 257
 751 560 l 257
 322 560 l 257
 322 0 l 257
 364 0 l 257
EndSplineSet
EndChar

StartChar: tml_RUu
Encoding: 91 -1 91
GlifName: tml_R_U_u
Width: 972
VWidth: 0
Flags: W
LayerCount: 2
Back
Fore
SplineSet
942 107 m 256
 942 235 889 339 788 339 c 256
 731 339 682 293 682 222 c 257
 706 204 l 257
 706 243 729 299 786 299 c 256
 837 299 900 252 900 107 c 256
 900 -48 765 -222 535 -223 c 256
 276 -224 72 -81 72 196 c 256
 72 338 117 531 230 531 c 256
 281 531 313 497 313 424 c 256
 313 371 279 329 232 329 c 256
 181 329 150 379 150 425 c 256
 150 499 189 531 230 531 c 257
 227 555 l 257
 140 555 113 468 113 415 c 256
 113 356 154 287 233 287 c 256
 316 287 355 362 355 428 c 256
 355 492 318 573 227 573 c 256
 72 573 30 344 30 201 c 256
 30 -103 246 -264 525 -265 c 256
 803 -266 942 -66 942 107 c 256
  PathStart: -2
454 0 m 257
 454 518 l 257
 663 518 l 257
 660 0 l 257
 696 0 669 0 705 0 c 257
 708 518 l 257
 841 518 l 257
 841 560 l 257
 412 560 l 257
 412 0 l 257
 454 0 l 257
EndSplineSet
EndChar

StartChar: tml_Ra
Encoding: 92 2992 92
GlifName: tml_R_a
Width: 469
VWidth: 0
Flags: W
AnchorPoint: "Anchor0" 169 0 basechar 0
LayerCount: 2
Back
Fore
SplineSet
72 0 m 257
 72 518 l 257
 281 518 l 257
 278 0 l 257
 314 0 287 0 323 0 c 257
 326 518 l 257
 459 518 l 257
 459 560 l 257
 30 560 l 257
 30 0 l 257
 72 0 l 257
323 0 m 257
 278 17 l 257
 33 -212 l 257
 61 -241 l 257
 323 0 l 257
EndSplineSet
EndChar

StartChar: tml_RrU
Encoding: 94 -1 94
GlifName: tml_R_rU_
Width: 810
VWidth: 0
Flags: W
LayerCount: 2
Back
Fore
SplineSet
629 214 m 256
 629 461 592 573 450 573 c 256
 346 573 307 498 307 431 c 257
 336 390 l 257
 337 470 365 534 450 534 c 256
 564 534 587 405 587 212 c 256
 587 19 577 -300 294 -300 c 256
 150 -300 64 -253 64 -192 c 256
 64 -159 93 -148 132 -148 c 257
 780 -148 l 257
 780 560 l 257
 738 560 l 257
 738 -106 l 257
 135 -106 l 257
 75 -106 22 -128 22 -192 c 256
 22 -290 148 -342 296 -342 c 256
 604 -342 629 -25 629 214 c 256
  PathStart: -2
72 0 m 257
 72 393 l 258
 72 483 115 531 185 531 c 256
 257 531 293 493 293 390 c 257
 329 426 l 257
 326 524 267 573 191 574 c 256
 86 575 30 502 30 404 c 258
 30 0 l 257
 72 0 l 257
335 0 m 257
 337 460 l 257
 293 460 l 257
 293 0 l 257
 335 0 l 257
EndSplineSet
EndChar

StartChar: tml_RrUu
Encoding: 95 -1 95
GlifName: tml_R_rU_u
Width: 1132
VWidth: 0
Flags: W
LayerCount: 2
Back
Fore
SplineSet
1002 -13 m 257
 1002 518 l 257
 1102 518 l 257
 1102 560 l 257
 780 560 l 257
 780 518 l 257
 960 518 l 257
 960 -13 l 257
 1002 -13 l 257
EndSplineSet
Refer: 94 -1 N 1 0 0 1 0 0 2
EndChar

StartChar: tml_Rra
Encoding: 96 2993 96
GlifName: tml_R_ra
Width: 659
VWidth: 0
Flags: W
LayerCount: 2
Back
Fore
SplineSet
76 -236 m 257
 77 -197 83 -138 165 -138 c 258
 363 -137 l 258
 590 -136 629 2 629 234 c 256
 629 461 595 573 453 573 c 256
 354 573 311 498 311 431 c 257
 336 390 l 257
 337 470 365 534 450 534 c 256
 564 534 587 446 587 234 c 256
 587 23 555 -96 357 -96 c 258
 160 -96 l 258
 94 -96 35 -129 34 -236 c 257
 76 -236 l 257
72 0 m 257
 72 393 l 258
 72 483 115 531 185 531 c 256
 257 531 293 493 293 390 c 257
 329 426 l 257
 326 524 267 573 191 574 c 256
 86 575 30 502 30 404 c 258
 30 0 l 257
 72 0 l 257
335 0 m 257
 337 460 l 257
 293 460 l 257
 293 0 l 257
 335 0 l 257
EndSplineSet
EndChar

StartChar: tml_Rupee
Encoding: 97 3065 97
GlifName: tml_R_upee
Width: 872
VWidth: 0
Flags: W
LayerCount: 2
Back
Fore
SplineSet
822 118 m 257
 822 118 l 257
 822 242 788 358 679 358 c 256
 579 358 554 248 550 200 c 257
 591 179 l 257
 591 278 636 316 679 316 c 256
 761 316 780 206 780 118 c 256
 780 -67 667 -225 460 -225 c 256
 214 -225 78 13 78 320 c 256
 78 640 227 907 483 912 c 257
 605 914 680 870 712 837 c 256
 734 814 744 811 746 727 c 256
 747 681 714 643 661 643 c 256
 613 643 575 681 575 729 c 256
 575 785 612 821 659 821 c 256
 714 821 747 787 746 727 c 257
 774 727 l 257
 774 792 720 863 659 863 c 256
 587 863 533 808 533 729 c 256
 533 658 586 601 661 601 c 256
 737 601 788 654 788 734 c 256
 788 862 673 954 483 954 c 256
 232 954 36 703 36 320 c 256
 36 -36 204 -267 460 -267 c 256
 683 -267 822 -104 822 118 c 257
  PathStart: -2
343 1 m 257
 343 518 l 257
 549 518 l 257
 549 1 l 257
 591 1 l 257
 591 518 l 257
 727 518 l 257
 727 560 l 257
 300 560 l 257
 300 1 l 257
 343 1 l 257
EndSplineSet
EndChar

StartChar: tml_Sa
Encoding: 98 3000 98
GlifName: tml_S_a
Width: 960
VWidth: 0
Flags: W
LayerCount: 2
Back
Fore
SplineSet
927 255 m 256
 927 401 884 512 833 571 c 257
 796 549 l 257
 804 539 885 444 885 255 c 256
 885 160 871 19 780 19 c 256
 704 19 696 86 696 141 c 258
 696 382 l 258
 696 496 667 574 563 574 c 256
 436 574 420 431 420 338 c 257
 463 330 l 257
 463 396 458 532 565 532 c 256
 653 532 654 435 654 375 c 258
 654 150 l 258
 654 74 665 -23 780 -23 c 256
 911 -23 927 151 927 255 c 256
  PathStart: -2
304 171 m 256
 304 291 244 354 177 354 c 256
 107 354 45 290 44 168 c 257
 78 148 l 257
 71 236 108 314 174 314 c 256
 227 314 264 265 264 172 c 256
 264 84 231 22 173 22 c 256
 89 22 71 151 71 238 c 256
 71 407 142 531 261 531 c 256
 359 531 420 474 420 321 c 257
 420 0 l 257
 463 0 l 257
 463 321 l 257
 463 516 373 571 259 571 c 256
 115 571 30 434 30 237 c 256
 30 86 78 -20 171 -20 c 256
 252 -20 304 59 304 171 c 256
  PathStart: -2
EndSplineSet
EndChar

StartChar: tml_Seven
Encoding: 99 3053 99
GlifName: tml_S_even
Width: 499
VWidth: 0
Flags: W
LayerCount: 2
Back
Fore
SplineSet
171 -24 m 256
 252 -24 304 55 304 167 c 256
 304 287 244 350 177 350 c 256
 107 350 45 286 44 164 c 257
 78 144 l 257
 71 232 108 310 174 310 c 256
 227 310 264 261 264 168 c 256
 264 80 231 18 173 18 c 256
 89 18 71 147 71 234 c 256
 71 403 138 520 257 520 c 257
 427 520 l 257
 427 0 l 257
 469 0 l 257
 469 560 l 257
 255 560 l 257
 111 560 30 430 30 233 c 256
 30 82 78 -24 171 -24 c 256
  PathStart: -2
EndSplineSet
EndChar

StartChar: tml_Sha
Encoding: 100 2998 100
GlifName: tml_S_ha
Width: 747
VWidth: 0
Flags: W
LayerCount: 2
Back
Fore
SplineSet
726 284 m 256
 727 521 649 560 527 560 c 257
 536 518 l 257
 638 519 684 480 684 284 c 256
 684 108 626 27 558 27 c 256
 505 27 477 55 477 143 c 258
 477 545 l 257
 435 545 l 256
 435 143 l 258
 435 15 487 -15 558 -15 c 256
 664 -15 725 96 726 284 c 256
  PathStart: -2
317 157 m 258
 317 560 l 257
 275 560 l 257
 275 157 l 258
 275 76 244 25 173 25 c 256
 98 25 72 76 72 157 c 258
 72 560 l 257
 30 560 l 257
 30 157 l 258
 30 45 78 -17 173 -17 c 256
 265 -17 317 44 317 157 c 258
  PathStart: -2
541 518 m 257
 532 560 l 257
 275 560 l 257
 275 518 l 257
 541 518 l 257
EndSplineSet
EndChar

StartChar: tml_Six
Encoding: 102 3052 102
GlifName: tml_S_ix
Width: 600
VWidth: 0
Flags: W
LayerCount: 2
Back
Fore
SplineSet
389 207 m 258
 389 518 l 257
 512 518 l 257
 512 560 l 257
 149 560 l 257
 149 309 l 257
 191 309 l 257
 191 518 l 257
 347 518 l 257
 347 301 l 257
 347 289 l 257
 347 207 l 258
 347 86 282 43 209 43 c 256
 128 43 72 96 72 177 c 256
 72 248 114 299 201 299 c 258
 424 299 l 257
 512 299 518 229 518 213 c 257
 554 239 l 257
 554 285 507 341 434 341 c 257
 183 341 l 258
 86 341 27 272 30 175 c 256
 33 68 104 1 213 1 c 256
 348 1 389 104 389 207 c 258
  PathStart: -2
560 0 m 257
 560 188 l 257
 560 278 605 299 705 299 c 257
 705 0 l 257
 747 0 l 257
 747 299 l 257
 827 299 l 257
 827 341 l 257
 670 341 l 257
 561 341 518 265 518 213 c 257
 518 0 l 257
 560 0 l 257
EndSplineSet
EndChar

StartChar: tml_Ssa
Encoding: 103 2999 103
GlifName: tml_S_sa
Width: 932
VWidth: 0
Flags: W
LayerCount: 2
Back
Fore
SplineSet
757 -146 m 257
 757 438 l 258
 757 463 757 573 640 573 c 256
 565 573 498 507 499 410 c 256
 501 240 610 155 728 155 c 256
 868 155 897 271 897 376 c 257
 860 379 l 257
 859 298 834 197 728 197 c 256
 610 197 541 299 541 400 c 256
 541 456 564 531 647 531 c 256
 692 531 715 491 715 438 c 258
 715 -146 l 257
 757 -146 l 257
304 171 m 256
 304 291 244 354 177 354 c 256
 107 354 45 290 44 168 c 257
 78 148 l 257
 71 236 108 314 174 314 c 256
 227 314 264 265 264 172 c 256
 264 84 231 22 173 22 c 256
 89 22 71 151 71 238 c 256
 71 407 138 531 257 531 c 256
 359 531 420 428 420 281 c 256
 420 169 381 63 367 34 c 257
 401 1 l 257
 433 84 463 174 463 280 c 256
 463 475 369 571 255 571 c 256
 111 571 30 434 30 237 c 256
 30 86 78 -20 171 -20 c 256
 252 -20 304 59 304 171 c 256
  PathStart: -2
902 1 m 257
 902 472 l 257
 860 472 l 257
 860 43 l 257
 416 43 l 257
 367 34 l 257
 367 1 l 257
 902 1 l 257
EndSplineSet
EndChar

StartChar: tml_Ta
Encoding: 106 2980 106
GlifName: tml_T_a
Width: 621
VWidth: 0
Flags: W
LayerCount: 2
Back
Fore
SplineSet
131 -236 m 257
 132 -197 138 -139 220 -138 c 258
 331 -137 l 258
 467 -136 591 -47 591 117 c 256
 591 271 520 341 375 341 c 258
 183 341 l 258
 86 341 27 272 30 175 c 256
 33 68 104 1 213 1 c 256
 348 1 389 104 389 207 c 258
 389 518 l 257
 512 518 l 257
 512 560 l 257
 149 560 l 257
 149 309 l 257
 191 309 l 257
 191 518 l 257
 347 518 l 257
 347 301 l 257
 347 289 l 257
 347 207 l 258
 347 86 282 43 209 43 c 256
 128 43 72 96 72 177 c 256
 72 248 114 299 201 299 c 258
 372 299 l 258
 506 299 545 243 545 116 c 256
 545 -43 406 -95 322 -95 c 258
 215 -95 l 258
 149 -95 90 -129 89 -236 c 257
 131 -236 l 257
EndSplineSet
EndChar

StartChar: tml_Ten
Encoding: 107 3056 107
GlifName: tml_T_en
Width: 600
VWidth: 0
Flags: W
LayerCount: 2
Back
Fore
SplineSet
692 261 m 256
 692 429 630 575 479 575 c 256
 394 575 348 527 321 499 c 257
 347 470 l 257
 381 504 424 538 486 538 c 256
 576 538 650 426 650 285 c 256
 650 128 601 33 501 32 c 256
 389 31 382 148 378 292 c 257
 336 292 l 257
 341 95 369 -10 501 -10 c 256
 620 -10 692 94 692 261 c 256
  PathStart: -2
378 292 m 257
 336 292 l 257
 340 101 318 25 207 25 c 256
 119 25 68 112 68 239 c 256
 68 373 135 483 158 527 c 257
 119 550 l 257
 79 470 26 364 26 234 c 256
 26 67 102 -17 207 -17 c 256
 360 -17 385 88 378 292 c 257
  PathStart: -2
EndSplineSet
EndChar

StartChar: tml_Thousand
Encoding: 108 3058 108
GlifName: tml_T_housand
Width: 552
VWidth: 0
Flags: W
LayerCount: 2
Back
Fore
SplineSet
536 -237 m 257
 536 -221 527 -147 599 -147 c 257
 671 -147 l 257
 775 -147 845 -72 845 24 c 256
 845 182 750 215 671 215 c 257
 548 215 l 257
 450 215 413 134 413 81 c 256
 413 31 448 -51 555 -51 c 257
 664 -52 684 25 684 96 c 257
 684 306 l 257
 642 306 l 257
 642 102 l 257
 642 26 618 -9 555 -9 c 256
 497 -9 455 30 455 81 c 256
 455 136 490 173 549 173 c 258
 660 173 l 258
 774 173 803 108 803 26 c 256
 803 -36 759 -104 667 -105 c 257
 608 -105 l 257
 491 -107 492 -191 492 -237 c 257
 536 -237 l 257
791 299 m 257
 791 341 l 257
 486 341 l 257
 486 299 l 257
 791 299 l 257
EndSplineSet
Refer: 12 2970 N 1 0 0 1 0 0 2
EndChar

StartChar: tml_Three
Encoding: 109 3049 109
GlifName: tml_T_hree
Width: 600
VWidth: 0
Flags: W
LayerCount: 2
Back
Fore
SplineSet
72 0 m 257
 72 518 l 257
 232 518 l 257
 232 164 l 257
 274 164 l 257
 274 518 l 257
 386 518 l 257
 386 560 l 257
 30 560 l 257
 30 0 l 257
 72 0 l 257
638 0 m 257
 638 42 l 257
 232 42 l 257
 232 0 l 257
 638 0 l 257
503 249 m 256
 503 349 449 408 372 408 c 256
 294 408 251 352 251 279 c 257
 274 274 l 257
 274 322 306 369 365 369 c 256
 432 369 461 318 461 247 c 256
 461 144 400 42 243 42 c 257
 253 13 l 257
 438 13 503 118 503 249 c 256
  PathStart: -2
EndSplineSet
EndChar

StartChar: tml_Tta
Encoding: 114 2975 114
GlifName: tml_T_ta
Width: 569
VWidth: 0
Flags: W
LayerCount: 2
Back
Fore
SplineSet
539 1 m 257
 539 43 l 257
 72 43 l 257
 72 560 l 257
 30 560 l 257
 30 1 l 257
 539 1 l 257
EndSplineSet
EndChar

StartChar: tml_Two
Encoding: 115 3048 115
GlifName: tml_T_wo
Width: 544
VWidth: 0
Flags: W
LayerCount: 2
Back
Fore
SplineSet
155 42 m 257
 99 42 82 64 82 91 c 256
 82 120 103 143 146 143 c 258
 236 144 l 258
 400 146 464 243 464 362 c 256
 464 496 371 589 235 588 c 256
 110 587 30 504 30 396 c 256
 30 304 88 238 169 238 c 256
 246 238 304 297 304 383 c 256
 304 478 234 519 167 519 c 256
 79 519 45 450 45 390 c 257
 72 375 l 257
 72 440 107 480 165 480 c 256
 213 480 262 452 262 384 c 256
 262 330 232 280 170 280 c 256
 109 280 72 328 72 375 c 257
 72 455 115 546 232 546 c 256
 315 546 420 501 420 360 c 256
 420 233 344 186 217 186 c 258
 144 186 l 258
 89 186 36 156 36 92 c 256
 36 43 67 0 157 0 c 257
 155 42 l 257
514 0 m 257
 514 42 l 257
 151 42 l 257
 153 0 l 257
 514 0 l 257
EndSplineSet
EndChar

StartChar: tml_U
Encoding: 116 2953 116
GlifName: tml_U_
Width: 798
VWidth: 0
Flags: W
LayerCount: 2
Back
Fore
SplineSet
768 0 m 257
 768 42 l 257
 149 42 l 258
 94 42 72 62 72 94 c 256
 72 127 94 151 137 152 c 258
 217 153 l 258
 374 155 441 250 441 376 c 256
 441 506 362 598 229 597 c 256
 106 596 24 516 24 402 c 256
 24 313 82 247 166 247 c 256
 238 247 298 306 298 390 c 256
 298 487 230 528 158 528 c 256
 74 528 39 458 39 399 c 257
 66 384 l 257
 66 449 100 489 160 489 c 256
 207 489 256 462 256 390 c 256
 256 340 226 289 163 289 c 256
 103 289 66 337 66 384 c 256
 66 464 106 554 229 555 c 256
 309 556 399 503 399 376 c 256
 399 242 317 194 193 194 c 258
 144 194 l 258
 78 194 30 160 30 93 c 256
 30 43 64 0 154 0 c 258
 768 0 l 257
EndSplineSet
EndChar

StartChar: tml_Uu
Encoding: 117 2954 117
GlifName: tml_U_u
Width: 1164
VWidth: 0
Flags: W
LayerCount: 2
Back
Fore
SplineSet
1144 0 m 257
 1144 42 l 257
 155 42 l 258
 99 42 82 64 82 91 c 256
 82 120 103 143 146 143 c 258
 236 144 l 258
 400 146 464 243 464 362 c 256
 464 496 371 589 235 588 c 256
 110 587 30 504 30 396 c 256
 30 304 88 238 169 238 c 256
 246 238 304 297 304 383 c 256
 304 478 234 519 167 519 c 256
 79 519 45 450 45 390 c 257
 72 375 l 257
 72 440 107 480 165 480 c 256
 213 480 262 452 262 384 c 256
 262 330 232 280 170 280 c 256
 109 280 72 328 72 375 c 257
 72 455 115 546 232 546 c 256
 315 546 420 501 420 360 c 256
 420 233 344 186 217 186 c 258
 144 186 l 258
 89 186 36 156 36 92 c 256
 36 43 67 0 147 0 c 258
 1144 0 l 257
742 248 m 256
 742 350 696 398 635 398 c 256
 572 398 535 339 535 247 c 257
 559 232 l 257
 553 299 583 358 633 358 c 256
 673 358 702 319 702 249 c 256
 702 182 677 136 633 136 c 256
 568 136 554 234 554 300 c 256
 554 428 606 513 696 513 c 256
 774 513 817 450 817 332 c 257
 854 331 l 257
 854 487 781 555 694 555 c 256
 585 555 514 449 514 299 c 256
 514 184 553 96 631 96 c 256
 702 96 742 163 742 248 c 256
  PathStart: -2
859 120 m 257
 859 503 l 257
 1007 503 l 257
 1007 120 l 257
 1047 120 l 257
 1047 503 l 257
 1142 503 l 257
 1142 545 l 257
 817 545 l 257
 817 473 l 257
 817 471 l 257
 817 120 l 257
 859 120 l 257
EndSplineSet
EndChar

StartChar: tml_Ya
Encoding: 121 2991 121
GlifName: tml_Y_a
Width: 648
VWidth: 0
Flags: W
LayerCount: 2
Back
Fore
SplineSet
618 0 m 257
 618 560 l 257
 576 560 l 257
 576 42 l 257
 332 42 l 257
 332 560 l 257
 290 560 l 257
 290 57 l 257
 303 0 l 257
 618 0 l 257
322 159 m 257
 290 170 l 257
 290 76 244 25 172 25 c 256
 64 25 72 141 72 179 c 258
 72 560 l 257
 30 560 l 257
 30 141 l 258
 30 39 88 -24 180 -17 c 256
 251 -12 322 32 322 159 c 257
  PathStart: -2
EndSplineSet
EndChar

StartChar: tml_Zero
Encoding: 123 3046 123
GlifName: tml_Z_ero
Width: 600
VWidth: 0
Flags: W
LayerCount: 2
Back
Fore
SplineSet
474 203 m 256
 474 314 392 409 267 409 c 256
 152 409 60 328 60 199 c 256
 60 72 148 -5 264 -5 c 256
 397 -5 474 95 474 203 c 256
  PathStart: -2
102 199 m 256
 102 281 150 367 270 367 c 256
 368 367 432 284 432 203 c 256
 432 123 364 37 269 37 c 256
 168 37 102 106 102 199 c 256
  PathStart: -2
EndSplineSet
EndChar

StartChar: va-tamil
Encoding: 124 2997 124
GlifName: va-tamil
Width: 687
VWidth: 0
Flags: W
LayerCount: 2
Back
Fore
SplineSet
304 171 m 256
 304 291 244 354 177 354 c 256
 107 354 45 290 44 168 c 257
 78 148 l 257
 71 236 108 314 174 314 c 256
 227 314 264 265 264 172 c 256
 264 84 231 22 173 22 c 256
 89 22 71 151 71 238 c 256
 71 407 138 531 257 531 c 256
 359 531 420 428 420 281 c 256
 420 169 381 63 367 34 c 257
 401 1 l 257
 433 84 463 174 463 280 c 256
 463 475 369 571 255 571 c 256
 111 571 30 434 30 237 c 256
 30 86 78 -20 171 -20 c 256
 252 -20 304 59 304 171 c 256
  PathStart: -2
657 1 m 257
 657 559 l 257
 615 559 l 257
 615 43 l 257
 416 43 l 257
 367 34 l 257
 367 1 l 257
 657 1 l 257
EndSplineSet
PickledDataWithLists: "(dp1
S'com.schriftgestaltung.Glyphs.rightMetricsKey'
p2
S'=tml_Pa'
p3
s."
EndChar
